<svg width="24" height="25" viewBox="0 0 24 25" fill="none" xmlns="http://www.w3.org/2000/svg">
<path d="M9.59054 8.00406C9.04053 7.95406 8.55411 8.35941 8.50411 8.90942C8.45411 9.45944 8.85945 9.94585 9.40947 9.99585L9.59054 8.00406ZM15 9.49996L15.9959 9.40943C15.9522 8.92867 15.5713 8.54777 15.0906 8.50407L15 9.49996ZM14.5042 15.0905C14.5542 15.6406 15.0406 16.0459 15.5906 15.9959C16.1406 15.9459 16.5459 15.4595 16.4959 14.9095L14.5042 15.0905ZM8.2929 14.7929C7.90237 15.1834 7.90237 15.8166 8.2929 16.2071C8.68342 16.5976 9.31659 16.5976 9.70711 16.2071L8.2929 14.7929ZM9.40947 9.99585L14.9095 10.4959L15.0906 8.50407L9.59054 8.00406L9.40947 9.99585ZM14.0042 9.5905L14.5042 15.0905L16.4959 14.9095L15.9959 9.40943L14.0042 9.5905ZM14.2929 8.79285L8.2929 14.7929L9.70711 16.2071L15.7072 10.2071L14.2929 8.79285ZM20.6 12.5C20.6 17.2497 16.7497 21.1 12 21.1V23.1C17.8542 23.1 22.6 18.3542 22.6 12.5H20.6ZM12 21.1C7.25038 21.1 3.40002 17.2497 3.40002 12.5H1.40002C1.40002 18.3542 6.14581 23.1 12 23.1V21.1ZM3.40002 12.5C3.40002 7.75038 7.25038 3.90002 12 3.90002V1.90002C6.14581 1.90002 1.40002 6.64581 1.40002 12.5H3.40002ZM12 3.90002C16.7497 3.90002 20.6 7.75038 20.6 12.5H22.6C22.6 6.64581 17.8542 1.90002 12 1.90002V3.90002Z" fill="white"/>
</svg>
