<svg width="24" height="24" viewBox="0 0 24 24" fill="none" xmlns="http://www.w3.org/2000/svg">
<path d="M13.0912 7.43729C12.9144 7.22515 12.5991 7.19649 12.387 7.37327C12.1748 7.55005 12.1462 7.86534 12.3229 8.07748L13.0912 7.43729ZM16.2426 12.0001L16.6267 12.3201C16.7812 12.1347 16.7812 11.8654 16.6267 11.68L16.2426 12.0001ZM12.3229 15.9226C12.1462 16.1348 12.1748 16.4501 12.387 16.6268C12.5991 16.8036 12.9144 16.775 13.0912 16.5628L12.3229 15.9226ZM7.75726 11.5001C7.48112 11.5001 7.25726 11.7239 7.25726 12.0001C7.25726 12.2762 7.48112 12.5001 7.75726 12.5001V11.5001ZM12.3229 8.07748L15.8585 12.3201L16.6267 11.68L13.0912 7.43729L12.3229 8.07748ZM15.8585 11.68L12.3229 15.9226L13.0912 16.5628L16.6267 12.3201L15.8585 11.68ZM16.2426 11.5001L7.75726 11.5001V12.5001L16.2426 12.5001L16.2426 11.5001ZM18.4346 5.56535C21.9883 9.11912 21.9883 14.8809 18.4346 18.4347L19.1417 19.1418C23.086 15.1975 23.086 8.80254 19.1417 4.85825L18.4346 5.56535ZM18.4346 18.4347C14.8808 21.9885 9.119 21.9885 5.56523 18.4347L4.85812 19.1418C8.80242 23.0861 15.1974 23.0861 19.1417 19.1418L18.4346 18.4347ZM5.56523 18.4347C2.01146 14.8809 2.01146 9.11912 5.56523 5.56535L4.85812 4.85825C0.913829 8.80254 0.913829 15.1975 4.85812 19.1418L5.56523 18.4347ZM5.56523 5.56535C9.119 2.01158 14.8808 2.01158 18.4346 5.56535L19.1417 4.85825C15.1974 0.913951 8.80242 0.913951 4.85812 4.85825L5.56523 5.56535Z" fill="white"/>
</svg>
