<svg width="44" height="44" viewBox="0 0 44 44" fill="none" xmlns="http://www.w3.org/2000/svg">
<path d="M12.8682 21.3121C12.6835 21.8326 12.9557 22.4042 13.4762 22.5889C13.9967 22.7736 14.5683 22.5014 14.753 21.9809L12.8682 21.3121ZM17.1997 12.0954L16.2573 11.761L17.1997 12.0954ZM19.4854 10.1164L19.2893 9.13581H19.2893L19.4854 10.1164ZM39.4375 6.12598L40.4216 6.30344C40.4804 5.9777 40.3741 5.644 40.1379 5.41219C39.9016 5.18037 39.5659 5.08048 39.2414 5.1454L39.4375 6.12598ZM35.7965 26.3172L34.8123 26.1397L35.7965 26.3172ZM33.6959 28.697L33.3976 27.7425H33.3976L33.6959 28.697ZM23.6187 30.7984C23.0916 30.9631 22.7978 31.524 22.9625 32.0511C23.1272 32.5783 23.6881 32.8721 24.2153 32.7073L23.6187 30.7984ZM39.7837 7.19403C40.1742 6.8035 40.1742 6.17034 39.7837 5.77981C39.3931 5.38929 38.76 5.38929 38.3694 5.77981L39.7837 7.19403ZM29.7068 14.4424C29.3163 14.8329 29.3163 15.4661 29.7068 15.8566C30.0974 16.2472 30.7305 16.2472 31.121 15.8566L29.7068 14.4424ZM8.03553 28.8653L7.32842 29.5724H7.32842L8.03553 28.8653ZM8.03553 25.9778L8.74264 26.6849H8.74264L8.03553 25.9778ZM19.5857 37.5279L20.2928 38.2351L19.5857 37.5279ZM16.6981 37.5279L17.4052 36.8208L16.6981 37.5279ZM23.1951 31.031L22.488 31.7381L23.1951 31.031ZM23.1951 33.9185L22.488 33.2114L23.1951 33.9185ZM14.5325 22.3684L15.2396 21.6613L14.5325 22.3684ZM11.645 22.3684L10.9378 21.6613L11.645 22.3684ZM14.753 21.9809L18.1421 12.4298L16.2573 11.761L12.8682 21.3121L14.753 21.9809ZM19.6815 11.097L39.6336 7.10656L39.2414 5.1454L19.2893 9.13581L19.6815 11.097ZM38.4534 5.94851L34.8123 26.1397L36.7806 26.4947L40.4216 6.30344L38.4534 5.94851ZM33.3976 27.7425L23.6187 30.7984L24.2153 32.7073L33.9942 29.6514L33.3976 27.7425ZM34.8123 26.1397C34.676 26.8957 34.1308 27.5133 33.3976 27.7425L33.9942 29.6514C35.4383 29.2001 36.5121 27.9837 36.7806 26.4947L34.8123 26.1397ZM18.1421 12.4298C18.3849 11.7456 18.9696 11.2394 19.6815 11.097L19.2893 9.13581C17.887 9.41627 16.7355 10.4133 16.2573 11.761L18.1421 12.4298ZM38.3694 5.77981L29.7068 14.4424L31.121 15.8566L39.7837 7.19403L38.3694 5.77981ZM13.8254 23.0755L22.488 31.7381L23.9022 30.3239L15.2396 21.6613L13.8254 23.0755ZM22.488 33.2114L18.8786 36.8208L20.2928 38.2351L23.9022 34.6256L22.488 33.2114ZM17.4052 36.8208L8.74264 28.1582L7.32842 29.5724L15.991 38.2351L17.4052 36.8208ZM8.74264 26.6849L12.3521 23.0755L10.9378 21.6613L7.32842 25.2707L8.74264 26.6849ZM8.74264 28.1582C8.33579 27.7514 8.33579 27.0917 8.74264 26.6849L7.32842 25.2707C6.14053 26.4586 6.14053 28.3845 7.32842 29.5724L8.74264 28.1582ZM18.8786 36.8208C18.4717 37.2277 17.8121 37.2277 17.4052 36.8208L15.991 38.2351C17.1789 39.4229 19.1049 39.4229 20.2928 38.2351L18.8786 36.8208ZM22.488 31.7381C22.8948 32.1449 22.8948 32.8046 22.488 33.2114L23.9022 34.6256C25.0901 33.4377 25.0901 31.5118 23.9022 30.3239L22.488 31.7381ZM15.2396 21.6613C14.0517 20.4734 12.1257 20.4734 10.9378 21.6613L12.3521 23.0755C12.7589 22.6686 13.4185 22.6686 13.8254 23.0755L15.2396 21.6613ZM28.9849 20.9394C27.7807 22.1436 25.8283 22.1436 24.6241 20.9394L23.2099 22.3536C25.1951 24.3389 28.4139 24.3389 30.3992 22.3536L28.9849 20.9394ZM24.6241 20.9394C23.4199 19.7352 23.4199 17.7827 24.6241 16.5785L23.2099 15.1643C21.2246 17.1496 21.2246 20.3683 23.2099 22.3536L24.6241 20.9394ZM24.6241 16.5785C25.8283 15.3743 27.7807 15.3743 28.9849 16.5785L30.3992 15.1643C28.4139 13.179 25.1951 13.179 23.2099 15.1643L24.6241 16.5785ZM28.9849 16.5785C30.1892 17.7827 30.1892 19.7352 28.9849 20.9394L30.3992 22.3536C32.3844 20.3683 32.3844 17.1496 30.3992 15.1643L28.9849 16.5785Z" fill="black"/>
</svg>
