<svg width="24" height="24" viewBox="0 0 24 24" fill="none" xmlns="http://www.w3.org/2000/svg">
<path d="M7.62856 16.1012H4.5551C2.60745 16.1012 1.02856 14.7728 1.02856 12.8252C1.02856 10.8775 2.60745 9.29867 4.5551 9.29867C4.68754 9.29867 4.81828 9.30597 4.94693 9.32019V9.29867H4.99544C4.96342 9.04194 4.94693 8.78039 4.94693 8.51499C4.94693 5.05251 7.75383 2.24561 11.2163 2.24561C13.561 2.24561 15.6051 3.53274 16.6805 5.43898C16.9433 5.40032 17.2122 5.3803 17.4857 5.3803C20.5154 5.3803 22.9714 7.83634 22.9714 10.866C22.9714 13.6296 20.9278 15.6653 18.2694 16.0456H15.4286M11.6082 9.6905V21.7543M11.6082 21.7543L8.82856 19.0456M11.6082 21.7543L14.3143 19.0456" stroke="white" stroke-width="2" stroke-linecap="round" stroke-linejoin="round"/>
</svg>
