<svg width="45" height="46" viewBox="0 0 45 46" fill="none" xmlns="http://www.w3.org/2000/svg">
<path d="M37.9688 0H7.03125C3.148 0 0 3.21795 0 7.1875V38.8125C0 42.782 3.148 46 7.03125 46H37.9688C41.852 46 45 42.782 45 38.8125V7.1875C45 3.21795 41.852 0 37.9688 0Z" fill="#EA4C89"/>
<path d="M22.5 11.5C16.29 11.5 11.25 16.652 11.25 23C11.25 29.348 16.29 34.5 22.5 34.5C28.6875 34.5 33.75 29.348 33.75 23C33.75 16.652 28.6875 11.5 22.5 11.5ZM29.925 16.79C31.275 18.469 32.0625 20.585 32.1075 22.908C31.7925 22.839 28.62 22.195 25.425 22.586C25.3575 22.425 25.29 22.241 25.2225 22.08C25.02 21.597 24.8175 21.114 24.5925 20.654C28.1025 19.205 29.7225 17.066 29.925 16.79ZM22.5 13.202C24.93 13.202 27.18 14.145 28.8675 15.663C28.6875 15.916 27.2475 17.894 23.8275 19.205C22.2525 16.238 20.4975 13.823 20.25 13.455C20.97 13.294 21.7125 13.202 22.5 13.202ZM18.405 14.122C18.6525 14.467 20.3625 16.905 21.96 19.803C17.46 21.022 13.5 20.999 13.0725 20.999C13.725 17.94 15.7275 15.41 18.405 14.122ZM12.8925 23.023C12.8925 22.931 12.8925 22.816 12.8925 22.724C13.2975 22.747 17.9775 22.793 22.77 21.321C23.04 21.873 23.31 22.425 23.5575 23C23.445 23.046 23.31 23.069 23.175 23.115C18.225 24.748 15.5925 29.21 15.3675 29.578C13.815 27.83 12.8925 25.53 12.8925 23.023ZM22.5 32.821C20.2725 32.821 18.225 32.039 16.605 30.751C16.785 30.383 18.72 26.542 24.1425 24.61C24.165 24.587 24.1875 24.587 24.21 24.587C25.56 28.175 26.1225 31.165 26.2575 32.039C25.11 32.545 23.8275 32.821 22.5 32.821ZM27.855 31.142C27.765 30.544 27.2475 27.669 25.9875 24.15C29.0025 23.667 31.635 24.472 31.9725 24.564C31.545 27.301 30.015 29.67 27.855 31.142Z" fill="white"/>
</svg>
