<svg width="27" height="28" viewBox="0 0 27 28" fill="none" xmlns="http://www.w3.org/2000/svg">
<path fill-rule="evenodd" clip-rule="evenodd" d="M9.87221 0C11.1006 0.00132157 12.2708 0.601315 13.0045 1.60439L14.1812 3.20613C14.5545 3.71362 15.1474 4.01626 15.7674 4.01758H19.4215C24.4099 4.01758 26.7336 6.63297 26.7336 12.2483L26.6975 18.8126C26.6962 24.0566 23.5109 27.3156 18.383 27.3156H8.33125C3.193 27.3156 0 24.0553 0 18.8086V8.50167C0 2.85988 2.45288 0 7.28888 0H9.87221ZM9.87092 1.98236H7.28888C3.53787 1.98236 1.9375 3.933 1.9375 8.50167V18.8086C1.9375 23.0165 4.20825 25.3332 8.33125 25.3332H18.383C22.4957 25.3332 24.76 23.0165 24.76 18.8086V18.8046L24.7961 12.243C24.7961 7.75102 23.29 5.99994 19.4215 5.99994H15.7661C14.5403 5.99862 13.37 5.39994 12.6338 4.39819L11.4545 2.7938C11.0838 2.285 10.4909 1.98368 9.87092 1.98236ZM19.0084 16.1401C19.5432 16.1401 19.9772 16.5841 19.9772 17.1313C19.9772 17.6784 19.5432 18.1225 19.0084 18.1225H7.72572C7.19097 18.1225 6.75697 17.6784 6.75697 17.1313C6.75697 16.5841 7.19097 16.1401 7.72572 16.1401H19.0084Z" fill="#01161E"/>
</svg>
