<svg width="40" height="40" viewBox="0 0 40 40" fill="none" xmlns="http://www.w3.org/2000/svg">
<path d="M32 23C32 23.5523 32.4477 24 33 24C33.5523 24 34 23.5523 34 23H32ZM4 23C4 23.5523 4.44772 24 5 24C5.55228 24 6 23.5523 6 23H4ZM8.5 5H29.5V3H8.5V5ZM32 7.38462V23H34V7.38462H32ZM6 23V7.38462H4V23H6ZM29.5 5C30.9126 5 32 6.09896 32 7.38462H34C34 4.93173 31.9534 3 29.5 3V5ZM8.5 3C6.04658 3 4 4.93173 4 7.38462H6C6 6.09896 7.08743 5 8.5 5V3ZM5 25H33V23H5V25ZM34 26V28H36V26H34ZM33 29H5V31H33V29ZM4 28V26H2V28H4ZM5 29C4.44772 29 4 28.5523 4 28H2C2 29.6569 3.34315 31 5 31V29ZM34 28C34 28.5523 33.5523 29 33 29V31C34.6569 31 36 29.6569 36 28H34ZM33 25C33.5523 25 34 25.4477 34 26H36C36 24.3431 34.6569 23 33 23V25ZM5 23C3.34315 23 2 24.3431 2 26H4C4 25.4477 4.44772 25 5 25V23Z" fill="black"/>
<path d="M24.6667 37C23.1939 37 22 35.8247 22 34.375V18.625C22 17.1753 23.1939 16 24.6667 16L35.3333 16C36.8061 16 38 17.1753 38 18.625V34.375C38 35.8247 36.8061 37 35.3333 37H24.6667Z" fill="white"/>
<path d="M26 17.3125L27.7778 19.9375H32.2222L34 17.3125M22 18.625V34.375C22 35.8247 23.1939 37 24.6667 37H35.3333C36.8061 37 38 35.8247 38 34.375V18.625C38 17.1753 36.8061 16 35.3333 16L24.6667 16C23.1939 16 22 17.1753 22 18.625Z" stroke="black" stroke-width="2" stroke-linecap="round" stroke-linejoin="round"/>
</svg>
