<svg width="46" height="46" viewBox="0 0 46 46" fill="none" xmlns="http://www.w3.org/2000/svg">
<path d="M38.8125 0H7.1875C3.21795 0 0 3.21795 0 7.1875V38.8125C0 42.782 3.21795 46 7.1875 46H38.8125C42.782 46 46 42.782 46 38.8125V7.1875C46 3.21795 42.782 0 38.8125 0Z" fill="#F00073"/>
<path d="M23.0001 13.2251C26.1626 13.2251 26.5938 13.2251 27.8876 13.2251C29.0376 13.2251 29.6126 13.5126 30.0438 13.6563C30.6188 13.9438 31.0501 14.0876 31.4813 14.5188C31.9126 14.9501 32.2001 15.3813 32.3438 15.9563C32.4876 16.3876 32.6313 16.9626 32.7751 18.1126C32.7751 19.4063 32.7751 19.6938 32.7751 23.0001C32.7751 26.3063 32.7751 26.5938 32.7751 27.8876C32.7751 29.0376 32.4876 29.6126 32.3438 30.0438C32.0564 30.6188 31.9126 31.0501 31.4813 31.4813C31.0501 31.9126 30.6188 32.2001 30.0438 32.3438C29.6126 32.4876 29.0376 32.6313 27.8876 32.7751C26.5938 32.7751 26.3063 32.7751 23.0001 32.7751C19.6938 32.7751 19.4063 32.7751 18.1126 32.7751C16.9626 32.7751 16.3876 32.4876 15.9563 32.3438C15.3813 32.0564 14.9501 31.9126 14.5188 31.4813C14.0876 31.0501 13.8001 30.6188 13.6563 30.0438C13.5126 29.6126 13.3688 29.0376 13.2251 27.8876C13.2251 26.5938 13.2251 26.3063 13.2251 23.0001C13.2251 19.6938 13.2251 19.4063 13.2251 18.1126C13.2251 16.9626 13.5126 16.3876 13.6563 15.9563C13.9438 15.3813 14.0876 14.9501 14.5188 14.5188C14.9501 14.0876 15.3813 13.8001 15.9563 13.6563C16.3876 13.5126 16.9626 13.3688 18.1126 13.2251C19.4063 13.2251 19.8376 13.2251 23.0001 13.2251ZM23.0001 11.0688C19.6938 11.0688 19.4063 11.0688 18.1126 11.0688C16.8188 11.0688 15.9563 11.3563 15.2376 11.6438C14.5188 11.9313 13.8001 12.3626 13.0813 13.0813C12.3626 13.8001 12.0751 14.3751 11.6438 15.2376C11.3563 15.9563 11.2126 16.8188 11.0688 18.1126C11.0688 19.4063 11.0688 19.8376 11.0688 23.0001C11.0688 26.3063 11.0688 26.5938 11.0688 27.8876C11.0688 29.1813 11.3563 30.0438 11.6438 30.7626C11.9313 31.4813 12.3626 32.2001 13.0813 32.9188C13.8001 33.6376 14.3751 33.9251 15.2376 34.3563C15.9563 34.6439 16.8188 34.7876 18.1126 34.9313C19.4063 34.9313 19.8376 34.9313 23.0001 34.9313C26.1626 34.9313 26.5938 34.9313 27.8876 34.9313C29.1813 34.9313 30.0438 34.6439 30.7626 34.3563C31.4813 34.0688 32.2001 33.6376 32.9188 32.9188C33.6376 32.2001 33.9251 31.6251 34.3563 30.7626C34.6439 30.0438 34.7876 29.1813 34.9313 27.8876C34.9313 26.5938 34.9313 26.1626 34.9313 23.0001C34.9313 19.8376 34.9313 19.4063 34.9313 18.1126C34.9313 16.8188 34.6439 15.9563 34.3563 15.2376C34.0688 14.5188 33.6376 13.8001 32.9188 13.0813C32.2001 12.3626 31.6251 12.0751 30.7626 11.6438C30.0438 11.3563 29.1813 11.2126 27.8876 11.0688C26.5938 11.0688 26.3063 11.0688 23.0001 11.0688Z" fill="white"/>
<path d="M23.0001 16.8188C19.5501 16.8188 16.8188 19.5501 16.8188 23.0001C16.8188 26.4501 19.5501 29.1813 23.0001 29.1813C26.4501 29.1813 29.1813 26.4501 29.1813 23.0001C29.1813 19.5501 26.4501 16.8188 23.0001 16.8188ZM23.0001 27.0251C20.8438 27.0251 18.9751 25.3001 18.9751 23.0001C18.9751 20.8438 20.7001 18.9751 23.0001 18.9751C25.1563 18.9751 27.0251 20.7001 27.0251 23.0001C27.0251 25.1563 25.1563 27.0251 23.0001 27.0251Z" fill="white"/>
<path d="M29.3251 18.1126C30.119 18.1126 30.7626 17.469 30.7626 16.6751C30.7626 15.8812 30.119 15.2376 29.3251 15.2376C28.5312 15.2376 27.8876 15.8812 27.8876 16.6751C27.8876 17.469 28.5312 18.1126 29.3251 18.1126Z" fill="white"/>
</svg>
