<svg width="45" height="46" viewBox="0 0 45 46" fill="none" xmlns="http://www.w3.org/2000/svg">
<path d="M37.9688 0H7.03125C3.148 0 0 3.21795 0 7.1875V38.8125C0 42.782 3.148 46 7.03125 46H37.9688C41.852 46 45 42.782 45 38.8125V7.1875C45 3.21795 41.852 0 37.9688 0Z" fill="#2867B2"/>
<path d="M16.3125 34.5H11.5312V19.1188H16.3125V34.5ZM13.9219 16.9625C12.375 16.9625 11.25 15.8125 11.25 14.2312C11.25 12.65 12.5156 11.5 13.9219 11.5C15.4688 11.5 16.5938 12.65 16.5938 14.2312C16.5938 15.8125 15.4688 16.9625 13.9219 16.9625ZM33.75 34.5H28.9688V26.1625C28.9688 23.7188 27.9844 23 26.5781 23C25.1719 23 23.7656 24.15 23.7656 26.3062V34.5H18.9844V19.1188H23.4844V21.275C23.9062 20.2688 25.5937 18.6875 27.9844 18.6875C30.6562 18.6875 33.4688 20.2687 33.4688 25.0125V34.5H33.75Z" fill="white"/>
</svg>
