<svg width="513" height="310" viewBox="0 0 513 310" fill="none" xmlns="http://www.w3.org/2000/svg">
<path d="M472.33 102.137C472.039 97.5634 471.354 92.8808 470.31 88.3796C463.722 59.9935 445.649 25.3759 416.554 14.712C397.796 7.90383 377.131 12.4816 357.183 12.6954C330.213 12.9131 303.859 4.76998 276.961 1.99912C235.663 -2.17934 193.933 6.85921 157.783 27.0336C110.293 53.4717 69.9662 99.3663 48.4382 149.254C35.5819 179.08 37.4565 213.947 59.4199 238.982C69.4985 250.545 82.4274 259.229 96.2513 265.747C124.48 279.113 156.13 283.541 187.346 285.235C225.798 287.325 264.722 285.381 302.492 277.165C339.215 269.171 377.381 258.398 397.328 223.962C403.376 213.516 401.864 198.641 409.894 189.671C414.897 184.121 423.037 181.746 429.302 177.999C456.7 161.176 474.345 135.024 472.33 102.137Z" fill="#DEEFF7"/>
<path d="M486.182 191.083C481.38 191.083 477.494 187.191 477.494 182.392C477.494 177.588 481.38 173.696 486.182 173.696C490.983 173.696 494.873 177.588 494.873 182.392C494.873 187.191 490.983 191.083 486.182 191.083Z" fill="#46CDCF" stroke="#333333" stroke-width="2" stroke-linecap="round" stroke-linejoin="round"/>
<path d="M506.835 156.563C504.081 156.563 501.844 154.324 501.844 151.57C501.844 148.815 504.081 146.581 506.835 146.581C509.588 146.581 511.826 148.815 511.826 151.57C511.826 154.324 509.588 156.563 506.835 156.563Z" fill="#48466D" stroke="#333333" stroke-width="2" stroke-linecap="round" stroke-linejoin="round"/>
<path d="M53.6306 11.5987C50.8771 11.5987 48.6396 9.36021 48.6396 6.60549C48.6396 3.85076 50.8771 1.6123 53.6306 1.6123C56.3841 1.6123 58.6215 3.85076 58.6215 6.60549C58.6215 9.36021 56.3841 11.5987 53.6306 11.5987Z" fill="white" stroke="#333333" stroke-width="2" stroke-linecap="round" stroke-linejoin="round"/>
<path d="M1.18543 220.284C-0.0643243 212.633 5.13625 205.425 12.7759 204.179C20.4235 202.937 27.6277 208.136 28.8654 215.783C30.1151 223.434 24.9146 230.641 17.275 231.88C9.62729 233.126 2.42308 227.927 1.18543 220.284Z" fill="#3D84A8" stroke="#333333" stroke-width="2" stroke-linecap="round" stroke-linejoin="round"/>
<path d="M294.611 187.965L309.306 173.264C318.469 164.096 318.469 149.395 309.306 140.227L307.882 139.122L276.127 169.468L278.021 171.368L294.611 187.965Z" fill="#46CDCF" stroke="#333333" stroke-width="2" stroke-linecap="round" stroke-linejoin="round"/>
<path d="M219.404 112.72L234.099 98.0232C243.262 88.8556 257.957 88.8556 267.121 98.0232L268.54 99.1283L237.417 130.584L235.994 129.16L219.404 112.72Z" fill="#46CDCF" stroke="#333333" stroke-width="2" stroke-linecap="round" stroke-linejoin="round"/>
<path d="M256.534 202.666L271.857 162.672L243.262 134.222L204.867 150.976L256.534 202.666Z" fill="#46CDCF" stroke="#333333" stroke-width="2" stroke-linecap="round" stroke-linejoin="round"/>
<path d="M338.534 110.824L358.284 91.0654L316.256 49.0186L235.994 129.321L278.022 171.368L326.842 122.521L338.534 110.824Z" fill="#ABEDD8" stroke="#333333" stroke-width="2" stroke-linecap="round" stroke-linejoin="round"/>
<path d="M358.284 91.0657L365.395 41.9082L316.256 49.0189L313.885 51.3904L355.123 94.3851L358.284 91.0657Z" fill="#ABEDD8" stroke="#333333" stroke-width="2" stroke-linecap="round" stroke-linejoin="round"/>
<path d="M297.296 125.84C288.576 125.84 281.497 118.762 281.497 110.034C281.497 101.31 288.576 94.2275 297.296 94.2275C306.02 94.2275 313.095 101.31 313.095 110.034C313.095 118.762 306.02 125.84 297.296 125.84Z" fill="#ABEDD8" stroke="#333333" stroke-width="2" stroke-linecap="round" stroke-linejoin="round"/>
<path d="M365.395 41.9084L383.565 23.7305" stroke="#333333" stroke-width="2" stroke-linecap="round" stroke-linejoin="round"/>
<path d="M193.175 162.672L168.684 187.174" stroke="#333333" stroke-width="2" stroke-linecap="round" stroke-linejoin="round"/>
<path d="M151.938 203.929L135.82 220.054" stroke="#333333" stroke-width="2" stroke-linecap="round" stroke-linejoin="round"/>
<path d="M226.512 195.866L191.438 231.117" stroke="#333333" stroke-width="2" stroke-linecap="round" stroke-linejoin="round"/>
<path d="M244.681 214.206L189.382 269.687" stroke="#333333" stroke-width="2" stroke-linecap="round" stroke-linejoin="round"/>
<path d="M455.264 307.286C453.297 309.258 450.148 309.258 448.181 307.286L425.621 284.72L432.708 277.629L455.264 300.2C457.272 302.168 457.272 305.318 455.264 307.286Z" fill="#3D84A8" stroke="#333333" stroke-width="2" stroke-linecap="round" stroke-linejoin="round"/>
<path d="M421.114 270.329C434.26 257.176 434.26 235.857 421.114 222.704C407.971 209.556 386.657 209.556 373.514 222.704C360.368 235.857 360.368 257.176 373.514 270.329C386.657 283.481 407.971 283.481 421.114 270.329Z" fill="#78C7E0" stroke="#333333" stroke-width="2" stroke-linecap="round" stroke-linejoin="round"/>
<path d="M424.404 243.605C424.48 244.589 424.561 245.573 424.561 246.557C424.561 261.602 412.358 273.81 397.32 273.81C382.279 273.81 370.076 261.602 370.076 246.557C370.076 231.513 382.279 219.305 397.32 219.305C409.366 219.305 419.598 227.141 423.222 238.051" stroke="#333333" stroke-width="2" stroke-linecap="round" stroke-linejoin="round"/>
<path d="M419.679 271.685L429.128 281.175" stroke="#333333" stroke-width="2" stroke-linecap="round" stroke-linejoin="round"/>
</svg>
