<svg xmlns="http://www.w3.org/2000/svg" height="1200" width="1600" version="1.1" xmlns:xlink="http://www.w3.org/1999/xlink" xmlns:svgjs="http://svgjs.com/svgjs"><rect fill="#effaff" width="1600" height="1200"></rect><g><path d="M1335.49 497.45C1334.77 486.11 1333.07 474.5 1330.48 463.34 1314.14 392.96 1269.31 307.13 1197.14 280.69 1150.61 263.81 1099.35 275.16 1049.87 275.69 982.97 276.23 917.6 256.04 850.88 249.17 748.44 238.81 644.93 261.22 555.26 311.24 437.46 376.79 337.43 490.58 284.03 614.27 252.14 688.22 256.79 774.67 311.27 836.74 336.27 865.41 368.34 886.94 402.63 903.1 472.65 936.24 551.16 947.22 628.59 951.42 723.97 956.6 820.52 951.78 914.21 931.41 1005.3 911.59 1099.97 884.88 1149.45 799.5 1164.45 773.6 1160.7 736.72 1180.62 714.48 1193.03 700.72 1213.22 694.83 1228.76 685.54 1296.72 643.83 1340.49 578.99 1335.49 497.45Z" fill="#deeff7" opacity="1" stroke-width="2" stroke="none"></path></g><g><path d="M1369.85 717.98C1357.94 717.98 1348.3 708.33 1348.3 696.43 1348.3 684.52 1357.94 674.87 1369.85 674.87 1381.76 674.87 1391.41 684.52 1391.41 696.43 1391.41 708.33 1381.76 717.98 1369.85 717.98Z" fill="#46cdcf" stroke="#333333" stroke-width="2" stroke-linecap="round" stroke-linejoin="round" opacity="1"></path><path d="M1421.08 632.39C1414.25 632.39 1408.7 626.84 1408.7 620.01 1408.7 613.18 1414.25 607.64 1421.08 607.64 1427.91 607.64 1433.46 613.18 1433.46 620.01 1433.46 626.84 1427.91 632.39 1421.08 632.39Z" fill="#48466d" stroke="#333333" stroke-width="2" stroke-linecap="round" stroke-linejoin="round" opacity="1"></path><path d="M296.91 272.97C290.08 272.97 284.53 267.42 284.53 260.59 284.53 253.76 290.08 248.21 296.91 248.21 303.74 248.21 309.29 253.76 309.29 260.59 309.29 267.42 303.74 272.97 296.91 272.97Z" fill="#ffffff" stroke="#333333" stroke-width="2" stroke-linecap="round" stroke-linejoin="round" opacity="1"></path><path d="M166.82 790.38C163.72 771.41 176.62 753.54 195.57 750.45 214.54 747.37 232.41 760.26 235.48 779.22 238.58 798.19 225.68 816.06 206.73 819.13 187.76 822.22 169.89 809.33 166.82 790.38Z" fill="#3d84a8" stroke="#333333" stroke-width="2" stroke-linecap="round" stroke-linejoin="round" opacity="1"></path></g><g><path d="M894.66 710.25L931.11 673.8C953.84 651.07 953.84 614.62 931.11 591.89L927.58 589.15 848.81 664.39 853.51 669.1 894.66 710.25Z" fill="#46cdcf" stroke="#333333" stroke-width="2" stroke-linecap="round" stroke-linejoin="round" opacity="1"></path><path d="M708.11 523.69L744.56 487.25C767.29 464.52 803.74 464.52 826.47 487.25L829.99 489.99 752.79 567.98 749.26 564.45 708.11 523.69Z" fill="#46cdcf" stroke="#333333" stroke-width="2" stroke-linecap="round" stroke-linejoin="round" opacity="1"></path><path d="M800.21 746.7L838.22 647.54 767.29 577 672.05 618.54 800.21 746.7Z" fill="#46cdcf" stroke="#333333" stroke-width="2" stroke-linecap="round" stroke-linejoin="round" opacity="1"></path><path d="M1003.61 518.99L1052.6 470 948.35 365.75 749.26 564.85 853.51 669.1 974.61 547.99 1003.61 518.99Z" fill="#abedd8" stroke="#333333" stroke-width="2" stroke-linecap="round" stroke-linejoin="round" opacity="1"></path><path d="M1052.6 470L1070.24 348.12 948.35 365.75 942.47 371.63 1044.76 478.23 1052.6 470Z" fill="#abedd8" stroke="#333333" stroke-width="2" stroke-linecap="round" stroke-linejoin="round" opacity="1"></path><path d="M901.32 556.22C879.69 556.22 862.13 538.67 862.13 517.03 862.13 495.4 879.69 477.84 901.32 477.84 922.96 477.84 940.51 495.4 940.51 517.03 940.51 538.67 922.96 556.22 901.32 556.22Z" fill="#abedd8" stroke="#333333" stroke-width="2" stroke-linecap="round" stroke-linejoin="round" opacity="1"></path><path d="M1070.24 348.12L1115.31 303.05" stroke="#333333" stroke-width="2" stroke-linecap="round" stroke-linejoin="round" opacity="1" fill="none"></path><path d="M643.05 647.54L582.3 708.29" stroke="#333333" stroke-width="2" stroke-linecap="round" stroke-linejoin="round" opacity="1" fill="none"></path><path d="M540.76 749.83L500.78 789.81" stroke="#333333" stroke-width="2" stroke-linecap="round" stroke-linejoin="round" opacity="1" fill="none"></path><path d="M725.74 729.84L638.74 817.24" stroke="#333333" stroke-width="2" stroke-linecap="round" stroke-linejoin="round" opacity="1" fill="none"></path><path d="M770.81 775.31L633.64 912.87" stroke="#333333" stroke-width="2" stroke-linecap="round" stroke-linejoin="round" opacity="1" fill="none"></path></g><g><path d="M1293.16 1006.09C1288.28 1010.98 1280.47 1010.98 1275.59 1006.09L1219.63 950.14 1237.21 932.56 1293.16 988.52C1298.14 993.4 1298.14 1001.21 1293.16 1006.09Z" fill="#3d84a8" stroke="#333333" stroke-width="2" stroke-linecap="round" stroke-linejoin="round" opacity="1"></path><path d="M1208.45 914.46C1241.06 881.85 1241.06 828.99 1208.45 796.38 1175.85 763.78 1122.98 763.78 1090.38 796.38 1057.77 828.99 1057.77 881.85 1090.38 914.46 1122.98 947.07 1175.85 947.07 1208.45 914.46Z" fill="#78c7e0" stroke="#333333" stroke-width="2" stroke-linecap="round" stroke-linejoin="round" opacity="1"></path><path d="M1216.61 848.2C1216.8 850.64 1217 853.08 1217 855.52 1217 892.82 1186.73 923.09 1149.43 923.09 1112.12 923.09 1081.85 892.82 1081.85 855.52 1081.85 818.22 1112.12 787.95 1149.43 787.95 1179.31 787.95 1204.69 807.38 1213.68 834.43" stroke="#333333" stroke-width="2" stroke-linecap="round" stroke-linejoin="round" opacity="1" fill="none"></path><path d="M1204.89 917.82L1228.33 941.35" stroke="#333333" stroke-width="2" stroke-linecap="round" stroke-linejoin="round" opacity="1" fill="none"></path></g></svg>