<svg width="41" height="40" viewBox="0 0 41 40" fill="none" xmlns="http://www.w3.org/2000/svg">
<path d="M10.5 14.0162C13.2614 14.0162 15.5 11.774 15.5 9.0081C15.5 6.2422 13.2614 4 10.5 4C7.73858 4 5.5 6.2422 5.5 9.0081C5.5 11.774 7.73858 14.0162 10.5 14.0162ZM10.5 14.0162V36M30.5 25.9838C33.2614 25.9838 35.5 28.226 35.5 30.9919C35.5 33.7578 33.2614 36 30.5 36C27.7386 36 25.5 33.7578 25.5 30.9919C25.5 28.226 27.7386 25.9838 30.5 25.9838ZM30.5 25.9838V14.0829C30.5 11.3215 28.2614 9.08295 25.5 9.08295H22.5" stroke="black" stroke-width="2" stroke-linecap="round" stroke-linejoin="round"/>
</svg>
