<svg width="40" height="40" viewBox="0 0 40 40" fill="none" xmlns="http://www.w3.org/2000/svg">
<path d="M2 20C2 29.942 10.058 38 20 38C29.94 38 38 29.942 38 20C38 10.0604 29.94 2 20 2C10.0584 2 2 10.0604 2 20ZM3.3868 20C3.3861 17.6702 3.8765 15.3664 4.826 13.2388L12.7504 34.95C7.2096 32.26 3.3868 26.5752 3.3868 20ZM20 36.6124C18.3692 36.6124 16.794 36.3748 15.3068 35.9376L20.292 21.4556L25.3984 35.444C25.4316 35.5268 25.4728 35.6 25.5156 35.67C23.744 36.2954 21.8787 36.6141 20 36.6124ZM33.4256 19.6884C34.3732 17.3184 34.6904 15.4236 34.6904 13.7388C34.6904 13.1272 34.6492 12.5596 34.5756 12.0296C35.9143 14.4727 36.6141 17.2145 36.61 20.0004C36.61 26.13 33.2896 31.4796 28.352 34.358L33.4256 19.6884ZM29.8436 14.5796C30.474 15.6856 31.2144 17.1076 31.2144 19.1616C31.2144 20.5844 30.7912 22.3724 29.95 24.5328L28.292 30.0672L22.2884 12.212C23.2908 12.1576 24.1892 12.0536 24.1892 12.0536C25.0844 11.9472 24.9776 10.634 24.0848 10.6832C24.0848 10.6832 21.3932 10.8956 19.6564 10.8956C18.0236 10.8956 15.282 10.6832 15.282 10.6832C14.386 10.634 14.2824 12.0016 15.1756 12.0536C15.1756 12.0536 16.0248 12.1576 16.92 12.212L19.506 19.3036L15.8716 30.204L9.82 12.212C10.8224 12.1576 11.7232 12.0536 11.7232 12.0536C12.6188 11.9472 12.5096 10.634 11.6168 10.6832C11.6168 10.6832 8.9268 10.8956 7.188 10.8956C6.8768 10.8956 6.5104 10.8876 6.12 10.8764C9.0916 6.3664 14.198 3.3876 20 3.3876C24.3248 3.3876 28.2628 5.042 31.2172 7.7508C31.146 7.7452 31.0752 7.7368 31.004 7.7368C29.3688 7.7368 28.2132 9.1572 28.2132 10.6836C28.2136 12.054 29.0028 13.212 29.8436 14.5796Z" fill="black"/>
</svg>
